<?xml version="1.0" encoding="UTF-8"?>
<svg id="Calque_2" xmlns="http://www.w3.org/2000/svg" viewBox="0 0 14.6 5.75">
  <defs>
    <style>
      .cls-1 {
        fill: #50b370;
      }

      .cls-2 {
        fill: #1d1d1b;
      }
    </style>
  </defs>
  <g id="Calque_1-2" data-name="Calque_1">
    <path class="cls-2" d="M4.43,4.31H1.63l-.55,1.3H0L2.52,0h1.03l2.53,5.61h-1.09l-.56-1.3ZM4.09,3.49l-1.06-2.45-1.05,2.45h2.11Z"/>
    <path class="cls-2" d="M9.81,2.81h.98v2.23c-.58.47-1.4.71-2.19.71-1.73,0-3.01-1.21-3.01-2.87s1.28-2.87,3.03-2.87c.93,0,1.72.31,2.24.91l-.66.64c-.44-.44-.94-.64-1.54-.64-1.19,0-2.03.81-2.03,1.96s.84,1.96,2.02,1.96c.4,0,.79-.08,1.15-.29v-1.74Z"/>
    <circle class="cls-1" cx="13.13" cy="4.28" r="1.47"/>
  </g>
</svg>